<?xml version="1.0" encoding="UTF-8"?>
<svg version="1.1" xmlns="http://www.w3.org/2000/svg" width="512" height="512">
<path d="M0 0 C1.11665039 -0.04930664 1.11665039 -0.04930664 2.25585938 -0.09960938 C15.86684777 -0.22448083 29.52122125 7.19168599 41.81329346 12.41995239 C46.53597943 14.42831969 51.26680126 16.41740882 55.99609375 18.41015625 C56.97759399 18.82436325 57.95909424 19.23857025 58.97033691 19.66532898 C69.64446103 24.16664351 80.3519888 28.586136 91.0625 33 C94.92328365 34.59218958 98.78390103 36.18478218 102.64453125 37.77734375 C103.5905722 38.16751678 104.53661316 38.55768982 105.51132202 38.95968628 C115.26245183 42.98213593 125.00692716 47.02058116 134.75 51.0625 C135.58528229 51.40900604 136.42056458 51.75551208 137.28115845 52.11251831 C140.63935684 53.50566873 143.99753004 54.89887981 147.3556366 56.29225159 C153.35100506 58.77978416 159.34719747 61.26532327 165.34375 63.75 C182.28348658 70.76950662 199.21865227 77.79965617 216.14263916 84.85705566 C233.32869168 92.02317287 250.53000377 99.15237196 267.73193359 106.28027344 C275.44850718 109.4778854 283.1642421 112.67751996 290.8800354 115.87701416 C295.14915544 117.64726011 299.41833052 119.41737329 303.6875 121.1875 C305.3958336 121.8958327 307.10416693 122.60416603 308.8125 123.3125 C309.658125 123.663125 310.50375 124.01375 311.375 124.375 C360.0625 144.5625 360.0625 144.5625 362.62454224 145.62486267 C364.33435195 146.33377316 366.04421124 147.04256409 367.75411987 147.75123596 C372.00277736 149.51226616 376.25057694 151.27530794 380.49658203 153.04272461 C388.44785055 156.34996694 396.40598801 159.63638581 404.39361572 162.85501099 C408.13653628 164.36461792 411.87492737 165.88526436 415.61303711 167.40673828 C417.38408974 168.12400098 419.15730959 168.83594031 420.93286133 169.54199219 C438.95766627 176.71250057 452.63747549 184.9867635 460.80859375 203.421875 C464.67817971 213.75862365 464.82978107 229.02105995 460.90234375 239.35546875 C460.58394531 240.04253906 460.26554687 240.72960937 459.9375 241.4375 C459.60878906 242.17613281 459.28007812 242.91476562 458.94140625 243.67578125 C450.33753891 260.9132871 435.29242835 267.44828465 418.4375 274.25 C416.61326017 274.99488372 414.78945604 275.74083526 412.96606445 276.48779297 C409.1790846 278.0381627 405.3902798 279.58394112 401.60009766 281.12646484 C393.61233565 284.38129474 385.64731313 287.69073318 377.68212891 291.00033569 C375.11145333 292.06812693 372.54019883 293.13451182 369.96875 294.20043945 C358.95310558 298.76694742 347.94354708 303.34791531 336.9375 307.9375 C319.01659277 315.41062099 301.08074058 322.84750424 283.14306641 330.28027344 C275.42649282 333.4778854 267.7107579 336.67751996 259.9949646 339.87701416 C255.72584456 341.64726011 251.45666948 343.41737329 247.1875 345.1875 C245.4791664 345.8958327 243.77083307 346.60416603 242.0625 347.3125 C108.81249996 402.56250002 108.81249996 402.56250002 106.25035095 403.62484741 C104.54084111 404.33367328 102.83133794 405.04251526 101.12184143 405.75137329 C96.86906314 407.51480246 92.61617175 409.27795782 88.36303711 411.04052734 C80.46062571 414.31575118 72.55930476 417.59352731 64.66189575 420.88079834 C60.99052645 422.40880104 57.31852737 423.93528704 53.64648438 425.46166992 C51.92074854 426.17950598 50.19531072 426.898059 48.47021484 427.61743164 C39.67769448 431.28374673 30.86828883 434.89737894 21.99609375 438.3671875 C21.24449478 438.66239288 20.49289581 438.95759827 19.71852112 439.26174927 C7.75269932 443.90421671 -6.37234672 444.51098397 -18.4296875 439.69140625 C-33.66776462 432.43410246 -41.53002257 422.68550216 -48.0625 407.4375 C-52.9696546 390.65232226 -47.16617763 372.1615462 -42.8515625 355.9453125 C-42.20069461 353.42373806 -41.55209313 350.90157767 -40.90560913 348.37887573 C-39.37941982 342.43890288 -37.82787105 336.50588111 -36.26644075 330.57508647 C-34.52852657 323.9692788 -32.81828992 317.35642358 -31.11092806 310.74266481 C-26.32356792 292.20250082 -21.50180784 273.67114774 -16.61541939 255.15682411 C-15.65200338 251.49996311 -14.69586233 247.84122862 -13.74158859 244.1819725 C-13.31175986 242.54153598 -12.87839408 240.90202127 -12.44112015 239.26355362 C-11.85217058 237.05664835 -11.27508872 234.84695819 -10.70068359 232.63623047 C-10.38118744 231.42691864 -10.06169128 230.21760681 -9.73251343 228.97164917 C-8.45091636 222.21155297 -8.99468722 216.70235237 -10.6887207 210.08447266 C-10.9507354 209.04444753 -10.9507354 209.04444753 -11.21804333 207.98341179 C-11.7990289 205.68704032 -12.39354282 203.39440714 -12.98828125 201.1015625 C-13.40839351 199.45385793 -13.82768454 197.80594378 -14.24621582 196.15783691 C-15.14362508 192.63147717 -16.0470409 189.10673018 -16.95498657 185.58306885 C-18.38743692 180.02185456 -19.80219464 174.45622213 -21.21557617 168.89013672 C-25.7234778 151.16383343 -30.30177207 133.45802736 -35.00637245 115.78288651 C-36.33840892 110.76837295 -37.65796579 105.75055623 -38.9775877 100.73276329 C-40.01649012 96.78908447 -41.06569531 92.84874921 -42.13931274 88.91436768 C-54.0549488 45.21780166 -54.0549488 45.21780166 -45.0625 28.4375 C-44.42634766 27.17099609 -44.42634766 27.17099609 -43.77734375 25.87890625 C-37.48188754 14.35769531 -27.7524067 5.98027254 -15.19799805 1.81958008 C-10.13324668 0.41650283 -5.23924774 0.03939284 0 0 Z M-17.0625 41.4375 C-20.83860785 52.76582356 -15.91961733 65.35120538 -13.05078125 76.41015625 C-12.52396474 78.48010376 -11.99828781 80.55034158 -11.47367859 82.62084961 C-10.07679453 88.12024249 -8.66385063 93.61538563 -7.24737549 99.10976028 C-5.79456766 104.75568553 -4.35618189 110.40528308 -2.91601562 116.05444336 C0.11271015 127.92297092 3.1629288 139.78590121 6.21904755 151.6473999 C7.27515855 155.74879228 8.32833443 159.85093642 9.38134766 163.953125 C11.22608789 171.13731067 13.07736047 178.31978365 14.9375 185.5 C15.19985443 186.51289093 15.46220886 187.52578186 15.73251343 188.56936646 C16.44364532 191.30876571 17.15831772 194.04720456 17.875 196.78515625 C18.07482986 197.5541626 18.27465973 198.32316895 18.48054504 199.11547852 C19.45359884 202.86834886 19.45359884 202.86834886 20.9375 206.4375 C21.72564402 206.43896656 22.51378803 206.44043312 23.3258152 206.44194412 C42.50530121 206.47899977 61.6846049 206.53799797 80.86394691 206.62140274 C90.13895583 206.66120791 99.41387973 206.69359289 108.68896484 206.70849609 C116.77337196 206.72150496 124.85759211 206.74845001 132.94189394 206.79211307 C137.22230034 206.81474517 141.50247599 206.83040964 145.78294754 206.82938385 C149.81318974 206.82863826 153.84292149 206.84654785 157.87303162 206.87866783 C159.3508153 206.88717548 160.82865618 206.88891084 162.3064537 206.88330269 C164.32750475 206.87665547 166.3485904 206.89695637 168.36953735 206.91851807 C169.49965555 206.92220524 170.62977375 206.92589241 171.79413795 206.92969131 C175.6895096 207.5589868 177.86249552 209.00693581 180.9375 211.4375 C183.95334552 215.8607401 184.85279805 220.1694512 183.9375 225.4375 C182.14118745 230.28561237 179.60103444 233.19622158 174.9375 235.4375 C171.91718578 235.82226086 171.91718578 235.82226086 168.48979187 235.83622742 C167.18713882 235.84876556 165.88448578 235.86130371 164.5423584 235.8742218 C163.10595678 235.87304784 161.66955537 235.87158872 160.2331543 235.86987305 C158.71518659 235.87889259 157.19722618 235.88922029 155.67927551 235.90075684 C151.56398111 235.92833051 147.44882489 235.93761183 143.33345008 235.94361091 C139.03057872 235.95299362 134.72781062 235.97919694 130.42500305 236.00361633 C122.27951756 236.04728784 114.1340521 236.0758308 105.98848516 236.09893972 C96.71400019 236.12598789 87.43961906 236.16989964 78.16520822 236.21522844 C59.08936029 236.30808404 40.01348491 236.37976059 20.9375 236.4375 C18.92857988 242.24049169 17.17531592 248.04547116 15.69189453 254.00341797 C15.48777671 254.81131523 15.28365889 255.61921249 15.07335567 256.45159149 C14.40248137 259.11016379 13.73642189 261.76991774 13.0703125 264.4296875 C12.59411049 266.31995696 12.11757641 268.21014279 11.64073181 270.10025024 C10.371948 275.132919 9.10722377 280.16659839 7.84370804 285.20059204 C5.76268658 293.49024975 3.67741476 301.77884017 1.59168434 310.06731415 C1.074643 312.12214862 0.55776563 314.17702435 0.04105186 316.23194122 C-3.07954885 328.63950713 -6.23523533 341.03646314 -9.47265625 353.4140625 C-10.08937901 355.78270872 -10.70607947 358.15136074 -11.32275391 360.52001953 C-12.4035532 364.66806681 -13.50053906 368.81135421 -14.60693359 372.95263672 C-19.06158146 387.73613379 -19.06158146 387.73613379 -16.375 402.375 C-12.85423186 407.03763889 -8.74260012 410.65274193 -2.92041016 411.89428711 C7.09840567 412.43976709 15.59919183 407.91854247 24.5625 404 C26.37630972 403.2246457 28.19102629 402.45140978 30.0065918 401.68017578 C33.77697987 400.07665107 37.54331644 398.46411008 41.30712891 396.84521484 C49.23667028 393.44323367 57.21401165 390.15772181 65.19085693 386.86862183 C69.46940976 385.10292413 73.74445293 383.32877743 78.01953125 381.5546875 C78.85407837 381.20846848 79.68862549 380.86224945 80.54846191 380.50553894 C89.01532427 376.99209276 97.47676673 373.46567425 105.9375 369.9375 C123.85840723 362.46437901 141.79425942 355.02749576 159.73193359 347.59472656 C167.44850718 344.3971146 175.1642421 341.19748004 182.8800354 337.99798584 C187.14915544 336.22773989 191.41833052 334.45762671 195.6875 332.6875 C197.3958336 331.9791673 199.10416693 331.27083397 200.8125 330.5625 C217.89583333 323.47916667 234.97916667 316.39583333 252.0625 309.3125 C252.90809982 308.96188507 253.75369965 308.61127014 254.62492371 308.25003052 C256.3335103 307.54159292 258.04209795 306.83315786 259.75068665 306.12472534 C264.01765374 304.35550809 268.28460261 302.58624691 272.55151367 300.81689453 C280.28513585 297.61005802 288.01889642 294.40355723 295.75332642 291.19866943 C313.54858474 283.82488268 331.33986076 276.44186354 349.11846924 269.02801514 C361.61489619 263.81729433 374.11821048 258.6232976 386.625 253.4375 C387.47296143 253.08582764 388.32092285 252.73415527 389.19458008 252.37182617 C390.84885881 251.68581126 392.50324538 251.00005634 394.15774536 250.3145752 C395.7553567 249.65206979 397.35243325 248.98827313 398.94894409 248.32312012 C402.85560042 246.69838375 406.77012171 245.1025422 410.70947266 243.55859375 C411.47693314 243.2538916 412.24439362 242.94918945 413.03511047 242.63525391 C414.46942316 242.06699437 415.90717581 241.50729989 417.3490448 240.95849609 C422.95810639 238.72165663 427.18835797 235.82799411 430.8125 230.875 C432.71765179 225.05370287 433.226678 218.84225215 431.0234375 213.0234375 C426.97675136 206.05269428 420.56665942 203.05155716 413.26171875 200.14453125 C412.51652985 199.84149078 411.77134094 199.53845032 411.00357056 199.22622681 C409.39146812 198.57148171 407.77814092 197.9197457 406.16372681 197.27072144 C402.67668448 195.86871991 399.19572273 194.45189385 395.71421814 193.03620911 C393.88613051 192.29308064 392.05772599 191.55073125 390.22901917 190.80912781 C380.54823503 186.8818632 370.8977161 182.88266125 361.25 178.875 C359.52369969 178.15856654 357.79738131 177.44217661 356.07104492 176.72583008 C344.28693565 171.83464577 332.50900044 166.92867259 320.73291016 162.01821899 C303.54668303 154.85198956 286.34518503 147.72270627 269.14306641 140.59472656 C261.42649282 137.3971146 253.7107579 134.19748004 245.9949646 130.99798584 C241.72584456 129.22773989 237.45666948 127.45762671 233.1875 125.6875 C231.4791664 124.9791673 229.77083307 124.27083397 228.0625 123.5625 C227.216875 123.211875 226.37125 122.86125 225.5 122.5 C176.81249995 102.31249998 176.81249995 102.31249998 174.25007629 101.25003052 C172.5414897 100.54159292 170.83290205 99.83315786 169.12431335 99.12472534 C164.85734626 97.35550809 160.59039739 95.58624691 156.32348633 93.81689453 C148.58986415 90.61005802 140.85610358 87.40355723 133.12167358 84.19866943 C115.32641526 76.82488268 97.53513924 69.44186354 79.75653076 62.02801514 C67.26010381 56.81729433 54.75678952 51.6232976 42.25 46.4375 C41.40203857 46.08582764 40.55407715 45.73415527 39.68041992 45.37182617 C38.85453369 45.02933838 38.02864746 44.68685059 37.17773438 44.33398438 C36.3657811 43.99723694 35.55382782 43.6604895 34.7172699 43.3135376 C33.12059469 42.65211015 31.52348485 41.99173083 29.92591858 41.3324585 C25.99784981 39.71105466 22.07713497 38.07512246 18.16772461 36.40917969 C17.40054611 36.08530273 16.63336761 35.76142578 15.84294128 35.42773438 C14.40316047 34.81963479 12.96578162 34.20580071 11.53144836 33.58496094 C0.04265306 28.75889675 -10.02673326 30.74313455 -17.0625 41.4375 Z " fill="#FFFFFF" transform="translate(49.0625,34.5625)"/>
</svg>
